<svg xmlns="http://www.w3.org/2000/svg" width="16.856" height="16.856" viewBox="0 0 16.856 16.856">
  <path id="Icon_ionic-logo-dribbble" data-name="Icon ionic-logo-dribbble" d="M12.928,4.5a8.428,8.428,0,1,0,8.428,8.428A8.43,8.43,0,0,0,12.928,4.5Zm5.351,3.885a7.012,7.012,0,0,1,1.655,4.078,35.532,35.532,0,0,0-4.793.057c-.184-.465-.373-.922-.579-1.361A8.534,8.534,0,0,0,18.279,8.385ZM12.928,5.9A6.992,6.992,0,0,1,17.409,7.52a8.737,8.737,0,0,1-3.455,2.441A17.153,17.153,0,0,0,11.2,6.128,7.048,7.048,0,0,1,12.928,5.9ZM9.75,6.673a16.969,16.969,0,0,1,2.8,3.8,18.448,18.448,0,0,1-5.342.759c-.369,0-.729-.013-1.084-.035A7.028,7.028,0,0,1,9.75,6.673ZM5.918,12.594c.4.018.8.026,1.211.022a20.775,20.775,0,0,0,6.04-.939q.25.52.474,1.067a4.345,4.345,0,0,0-.628.189A10.49,10.49,0,0,0,7.66,17.563,7,7,0,0,1,5.9,12.928C5.9,12.814,5.909,12.7,5.918,12.594Zm7.01,7.357a6.982,6.982,0,0,1-4.306-1.479,9.659,9.659,0,0,1,4.706-4.337,3.784,3.784,0,0,1,.764-.233q.375,1.04.672,2.16a25.513,25.513,0,0,1,.65,3.428A6.958,6.958,0,0,1,12.928,19.951Zm3.8-1.119a25.338,25.338,0,0,0-.654-3.463c-.149-.571-.32-1.124-.5-1.664a29.852,29.852,0,0,1,4.341,0A7.016,7.016,0,0,1,16.725,18.832Z" transform="translate(-4.5 -4.5)" fill="#f0ecec"/>
</svg>
