<svg width="17" height="17" viewBox="0 0 17 17" fill="none" xmlns="http://www.w3.org/2000/svg">
<g clip-path="url(#clip0)">
<path d="M3.82648 16.1172V5.24258H0.212347V16.1172H3.82648ZM2.01988 3.75695C3.28019 3.75695 4.06467 2.9219 4.06467 1.87838C4.04119 0.811317 3.28024 -0.000549316 2.0438 -0.000549316C0.807546 -0.000549316 -0.00088501 0.811333 -0.00088501 1.87838C-0.00088501 2.92195 0.783404 3.75695 1.99628 3.75695H2.01977H2.01988ZM5.82689 16.1172H9.44101V10.0443C9.44101 9.71927 9.4645 9.39459 9.55994 9.16225C9.82121 8.51289 10.4159 7.84033 11.4143 7.84033C12.7221 7.84033 13.2452 8.83756 13.2452 10.2994V16.1171H16.8592V9.88172C16.8592 6.54146 15.0761 4.98728 12.6983 4.98728C10.7486 4.98728 9.89254 6.07719 9.41697 6.81953H9.44109V5.24236H5.82697C5.8744 6.26277 5.82697 16.117 5.82697 16.117L5.82689 16.1172Z" fill="#F0ECEC"/>
</g>
<defs>
<clipPath id="clip0">
<rect width="16.86" height="16.1177" fill="white"/>
</clipPath>
</defs>
</svg>
