<svg xmlns="http://www.w3.org/2000/svg" width="16.936" height="10.617" viewBox="0 0 16.936 10.617">
  <path id="Icon_awesome-behance" data-name="Icon awesome-behance" d="M6.821,10.059A2.231,2.231,0,0,0,8.244,7.883C8.244,5.807,6.7,5.3,4.913,5.3H0v10.42H5.051c1.894,0,3.672-.909,3.672-3.025a2.511,2.511,0,0,0-1.9-2.637ZM2.29,7.08H4.44c.826,0,1.57.232,1.57,1.191,0,.885-.579,1.241-1.4,1.241H2.29ZM4.74,13.952H2.29v-2.87h2.5c1.008,0,1.647.42,1.647,1.488S5.672,13.952,4.74,13.952ZM15.28,6.875H11.055V5.848H15.28Zm1.655,5.184c0-2.232-1.305-4.093-3.672-4.093A3.792,3.792,0,0,0,9.4,11.958a3.675,3.675,0,0,0,3.861,3.96,3.364,3.364,0,0,0,3.531-2.537H14.966a1.717,1.717,0,0,1-1.638.985,1.706,1.706,0,0,1-1.852-1.92h5.442C16.927,12.323,16.936,12.191,16.936,12.058Zm-5.457-.917A1.619,1.619,0,0,1,13.2,9.53a1.545,1.545,0,0,1,1.652,1.611Z" transform="translate(0 -5.302)" fill="#f0ecec"/>
</svg>
