<svg xmlns="http://www.w3.org/2000/svg" width="25" height="25" viewBox="0 0 25 25">
  <g id="instagram" transform="translate(0.459 0.459)">
    <path id="Path_5" data-name="Path 5" d="M23.658,12.614H16.687a4.073,4.073,0,0,0-4.073,4.073v6.972a4.073,4.073,0,0,0,4.073,4.073h6.971a4.073,4.073,0,0,0,4.073-4.073V16.687a4.073,4.073,0,0,0-4.073-4.073Z" transform="translate(-8.537 -8.537)" fill="none"/>
    <path id="Path_6" data-name="Path 6" d="M23.658,12.614H16.687a4.073,4.073,0,0,0-4.073,4.073v6.972a4.073,4.073,0,0,0,4.073,4.073h6.971a4.073,4.073,0,0,0,4.073-4.073V16.687a4.073,4.073,0,0,0-4.073-4.073Z" transform="translate(-8.537 -8.537)" fill="none" stroke="#f0ecec" stroke-miterlimit="10" stroke-width="2"/>
    <circle id="Ellipse_1" data-name="Ellipse 1" cx="3.649" cy="3.649" r="3.649" transform="translate(7.987 7.987)" fill="none" stroke="#f0ecec" stroke-miterlimit="10" stroke-width="2"/>
    <circle id="Ellipse_2" data-name="Ellipse 2" cx="0.782" cy="0.782" r="0.782" transform="translate(15.285 6.423)" fill="#f0ecec"/>
    <rect id="Rectangle_8" data-name="Rectangle 8" width="25" height="25" transform="translate(-0.459 -0.459)" fill="none"/>
  </g>
</svg>
